<svg id="Lag_1" data-name="Lag 1" xmlns="http://www.w3.org/2000/svg" xmlns:xlink="http://www.w3.org/1999/xlink" viewBox="0 0 252.51 70.18"><defs><linearGradient id="linear-gradient" x1="-1607.66" y1="556.02" x2="-1607.39" y2="556.02" gradientTransform="matrix(40.75, -70.87, -70.87, -40.75, 104931.85, -91230.78)" gradientUnits="userSpaceOnUse"><stop offset="0" stop-color="#ff3156"/><stop offset="0.68" stop-color="#8b2434"/><stop offset="1" stop-color="#8b2434"/></linearGradient></defs><path d="M129.85,56.63h-7.23V41a8.26,8.26,0,0,0-1.16-4.87,3.78,3.78,0,0,0-3.21-1.57,6.18,6.18,0,0,0-4,1.63,8.8,8.8,0,0,0-2.72,4.22V56.63h-7.24V41a8.13,8.13,0,0,0-1.16-4.89,3.79,3.79,0,0,0-3.21-1.55,6.27,6.27,0,0,0-4,1.58,8.68,8.68,0,0,0-2.72,4.17V56.63H85.93v-28h6.53v5.22a11.18,11.18,0,0,1,4.31-4.19A12.89,12.89,0,0,1,103,28.2a8.15,8.15,0,0,1,5.48,1.7A7.59,7.59,0,0,1,111,34.12a12,12,0,0,1,4.39-4.4,11.89,11.89,0,0,1,6-1.52,8.69,8.69,0,0,1,4.29.93,6.71,6.71,0,0,1,2.56,2.51,10.42,10.42,0,0,1,1.27,3.55,22.2,22.2,0,0,1,.35,4Z" fill="#ff3156"/><path d="M136.17,24.42V17.24h7.23v7.18Zm0,32.21V28.36h7.23V56.63Z" fill="#ff3156"/><path d="M166.87,55.23c-.61.25-1.35.54-2.21.86a17.66,17.66,0,0,1-2.78.79,15.89,15.89,0,0,1-3,.29,9.56,9.56,0,0,1-3.67-.69,5.84,5.84,0,0,1-2.67-2.22,7.2,7.2,0,0,1-1-4V34.19h-3.72V28.63h3.72V19.46h7.23v9.17h5.94v5.56h-5.94V47.82a2.76,2.76,0,0,0,.81,2.08,2.88,2.88,0,0,0,1.89.64,6.73,6.73,0,0,0,2.22-.38c.71-.25,1.29-.47,1.72-.65Z" fill="#ff3156"/><path d="M170.48,56.63V48.86h5.94v7.77Z" fill="#ff3156"/><path d="M181.06,42.66a16.38,16.38,0,0,1,1.62-7.34,13.07,13.07,0,0,1,4.48-5.2,11.42,11.42,0,0,1,6.53-1.92,10.65,10.65,0,0,1,5.64,1.53,11.37,11.37,0,0,1,3.91,3.92V17.24h7.23v31.3a2.61,2.61,0,0,0,.38,1.62,1.83,1.83,0,0,0,1.29.59v5.88a16.55,16.55,0,0,1-3.07.38,5.14,5.14,0,0,1-3.22-1,3.51,3.51,0,0,1-1.42-2.54l-.11-1.78a10.52,10.52,0,0,1-4.24,4.05,11.78,11.78,0,0,1-5.58,1.4,12.69,12.69,0,0,1-5.37-1.12A13.11,13.11,0,0,1,184.86,53a14.23,14.23,0,0,1-2.8-4.62A15.82,15.82,0,0,1,181.06,42.66Zm22.18,3.7V39.75A7.52,7.52,0,0,0,201.51,37a9.64,9.64,0,0,0-2.64-1.93,6.67,6.67,0,0,0-2.92-.71,6.55,6.55,0,0,0-3,.69,7.5,7.5,0,0,0-2.35,1.85,8.12,8.12,0,0,0-1.51,2.7,10.16,10.16,0,0,0-.51,3.23,9,9,0,0,0,.57,3.2,7.32,7.32,0,0,0,1.64,2.62,8.16,8.16,0,0,0,2.51,1.75,7.6,7.6,0,0,0,3.1.63,6.61,6.61,0,0,0,2.08-.34,8.94,8.94,0,0,0,2-1,7.17,7.17,0,0,0,1.67-1.49A6.34,6.34,0,0,0,203.24,46.36Z" fill="#ff3156"/><path d="M236.91,56.63l-8.26-12.1-3.83,3.75v8.35h-7.23V17.24h7.23v24l11.39-12.58h7.66L233.35,40.52l11.28,16.11Z" fill="#ff3156"/><path d="M9.62,55.89V18.59a7.06,7.06,0,1,1,14.12,0v37.3a7.06,7.06,0,0,1-14.12,0" fill="url(#linear-gradient)"/><path d="M61.83,63a7.07,7.07,0,0,1-7.06-7.24V47.37a7.07,7.07,0,1,1,14.13,0v8.34A7.06,7.06,0,0,1,61.83,63Z" fill="#ff3156"/><path d="M39.05,41.26c-15.52,0-27-16.79-28.24-18.71a7.23,7.23,0,0,1,12.09-8,43.35,43.35,0,0,0,5.72,6.65c3.79,3.57,7.49,5.54,10.43,5.54,7.11,0,14.49-9,16.51-12.11a7.23,7.23,0,0,1,12.2,7.78,51.8,51.8,0,0,1-7.62,9.08C53.47,37.9,46.17,41.26,39.05,41.26Z" fill="#ff3156"/></svg>